{
  "accessors": [
    {
      "bufferView": 2,
      "componentType": 5126,
      "count": 134,
      "max": [
        11.819303512573242,
        19.24224281311035,
        6.5162153244018555
      ],
      "min": [
        -19.290142059326172,
        -0.5632624626159668,
        -6.5162153244018555
      ],
      "type": "VEC3"
    },
    {
      "bufferView": 2,
      "byteOffset": 1608,
      "componentType": 5126,
      "count": 134,
      "max": [
        0.5538769364356995,
        0.1926528662443161,
        0.9370415806770325
      ],
      "min": [
        -0.9915315508842468,
        -0.9999845027923584,
        -0.9370415210723877
      ],
      "type": "VEC3"
    },
    {
      "bufferView": 1,
      "componentType": 5126,
      "count": 134,
      "max": [
        0.8857018351554871,
        0.7815292477607727
      ],
      "min": [
        0.02273338846862316,
        0.14348138868808746
      ],
      "type": "VEC2"
    },
    {
      "bufferView": 0,
      "componentType": 5125,
      "count": 468,
      "type": "SCALAR"
    },
    {
      "bufferView": 2,
      "byteOffset": 3216,
      "componentType": 5126,
      "count": 1264,
      "max": [
        14.759195327758789,
        30.138671875,
        11.518296241760254
      ],
      "min": [
        -19.290142059326172,
        -0.5326982140541077,
        -11.518296241760254
      ],
      "type": "VEC3"
    },
    {
      "bufferView": 2,
      "byteOffset": 18384,
      "componentType": 5126,
      "count": 1264,
      "max": [
        0.9714647531509399,
        0.9618886113166809,
        0.9996765851974487
      ],
      "min": [
        -0.999419093132019,
        -0.9990503191947937,
        -0.9996703267097473
      ],
      "type": "VEC3"
    },
    {
      "bufferView": 1,
      "byteOffset": 1072,
      "componentType": 5126,
      "count": 1264,
      "max": [
        0.9838321805000305,
        0.99609375
      ],
      "min": [
        0.00390625,
        0.00390625
      ],
      "type": "VEC2"
    },
    {
      "bufferView": 0,
      "byteOffset": 1872,
      "componentType": 5125,
      "count": 5178,
      "type": "SCALAR"
    },
    {
      "bufferView": 2,
      "byteOffset": 33552,
      "componentType": 5126,
      "count": 642,
      "max": [
        21.03200340270996,
        32.0611572265625,
        11.070409774780273
      ],
      "min": [
        -21.300718307495117,
        0.33279895782470703,
        -11.070409774780273
      ],
      "type": "VEC3"
    },
    {
      "bufferView": 2,
      "byteOffset": 41256,
      "componentType": 5126,
      "count": 642,
      "max": [
        0.9817714691162109,
        0.9888337254524231,
        0.9998685121536255
      ],
      "min": [
        -0.999419093132019,
        -0.9831229448318481,
        -0.9998685717582703
      ],
      "type": "VEC3"
    },
    {
      "bufferView": 1,
      "byteOffset": 11184,
      "componentType": 5126,
      "count": 642,
      "max": [
        0.9955064058303833,
        0.9836502075195313
      ],
      "min": [
        0.01753973588347435,
        0.00390625
      ],
      "type": "VEC2"
    },
    {
      "bufferView": 0,
      "byteOffset": 22584,
      "componentType": 5125,
      "count": 2802,
      "type": "SCALAR"
    },
    {
      "bufferView": 2,
      "byteOffset": 48960,
      "componentType": 5126,
      "count": 28,
      "max": [
        -15.506416320800781,
        27.163267135620117,
        3.0363452434539795
      ],
      "min": [
        -17.950902938842773,
        20.997446060180664,
        -3.0363452434539795
      ],
      "type": "VEC3"
    },
    {
      "bufferView": 2,
      "byteOffset": 49296,
      "componentType": 5126,
      "count": 28,
      "max": [
        0.265796959400177,
        0.9323025345802307,
        0.9027066230773926
      ],
      "min": [
        -0.9577968120574951,
        -0.32826539874076843,
        -0.902706503868103
      ],
      "type": "VEC3"
    },
    {
      "bufferView": 1,
      "byteOffset": 16320,
      "componentType": 5126,
      "count": 28,
      "max": [
        0.10529282689094543,
        0.498533695936203
      ],
      "min": [
        0.021435018628835678,
        0.00390625
      ],
      "type": "VEC2"
    },
    {
      "bufferView": 0,
      "byteOffset": 33792,
      "componentType": 5125,
      "count": 72,
      "type": "SCALAR"
    },
    {
      "bufferView": 2,
      "byteOffset": 49632,
      "componentType": 5126,
      "count": 28,
      "max": [
        -16.390708923339844,
        27.598560333251953,
        2.417706251144409
      ],
      "min": [
        -18.855289459228516,
        22.22489356994629,
        -2.417706251144409
      ],
      "type": "VEC3"
    },
    {
      "bufferView": 2,
      "byteOffset": 49968,
      "componentType": 5126,
      "count": 28,
      "max": [
        0.27144789695739746,
        0.9313952922821045,
        0.9359452128410339
      ],
      "min": [
        -0.924307107925415,
        -0.5037478804588318,
        -0.9359444975852966
      ],
      "type": "VEC3"
    },
    {
      "bufferView": 1,
      "byteOffset": 16544,
      "componentType": 5126,
      "count": 28,
      "max": [
        0.09349174052476883,
        0.4840283691883087
      ],
      "min": [
        0.033708926290273666,
        0.023938879370689392
      ],
      "type": "VEC2"
    },
    {
      "bufferView": 0,
      "byteOffset": 34080,
      "componentType": 5125,
      "count": 72,
      "type": "SCALAR"
    },
    {
      "bufferView": 2,
      "byteOffset": 50304,
      "componentType": 5126,
      "count": 28,
      "max": [
        -17.705955505371094,
        27.961774826049805,
        1.7615536451339722
      ],
      "min": [
        -19.92171287536621,
        23.815324783325195,
        -1.7615536451339722
      ],
      "type": "VEC3"
    },
    {
      "bufferView": 2,
      "byteOffset": 50640,
      "componentType": 5126,
      "count": 28,
      "max": [
        0.27144789695739746,
        0.9422084093093872,
        0.9473251104354858
      ],
      "min": [
        -0.8349003791809082,
        -0.5677261352539063,
        -0.9473264217376709
      ],
      "type": "VEC3"
    },
    {
      "bufferView": 1,
      "byteOffset": 16768,
      "componentType": 5126,
      "count": 28,
      "max": [
        0.08829863369464874,
        0.46292242407798767
      ],
      "min": [
        0.04321248084306717,
        0.05252717807888985
      ],
      "type": "VEC2"
    },
    {
      "bufferView": 0,
      "byteOffset": 34368,
      "componentType": 5125,
      "count": 72,
      "type": "SCALAR"
    },
    {
      "bufferView": 2,
      "byteOffset": 50976,
      "componentType": 5126,
      "count": 28,
      "max": [
        -18.99925422668457,
        28.297847747802734,
        1.3396387100219727
      ],
      "min": [
        -20.774940490722656,
        25.28487777709961,
        -1.3396387100219727
      ],
      "type": "VEC3"
    },
    {
      "bufferView": 2,
      "byteOffset": 51312,
      "componentType": 5126,
      "count": 28,
      "max": [
        0.23831415176391602,
        0.9626410603523254,
        0.9473251104354858
      ],
      "min": [
        -0.859746515750885,
        -0.5677261352539063,
        -0.9473264217376709
      ],
      "type": "VEC3"
    },
    {
      "bufferView": 1,
      "byteOffset": 16992,
      "componentType": 5126,
      "count": 28,
      "max": [
        0.10488186031579971,
        0.4462416470050812
      ],
      "min": [
        0.05014074966311455,
        0.08079113811254501
      ],
      "type": "VEC2"
    },
    {
      "bufferView": 0,
      "byteOffset": 34656,
      "componentType": 5125,
      "count": 72,
      "type": "SCALAR"
    },
    {
      "bufferView": 2,
      "byteOffset": 51648,
      "componentType": 5126,
      "count": 64,
      "max": [
        -14.289844512939453,
        19.7084903717041,
        6.133760929107666
      ],
      "min": [
        -16.126630783081055,
        17.654293060302734,
        -6.133760929107666
      ],
      "type": "VEC3"
    },
    {
      "bufferView": 2,
      "byteOffset": 52416,
      "componentType": 5126,
      "count": 64,
      "max": [
        -0.2204904705286026,
        0.3158027231693268,
        0.973513662815094
      ],
      "min": [
        -0.66806960105896,
        -0.18475541472434998,
        -0.9735135436058044
      ],
      "type": "VEC3"
    },
    {
      "bufferView": 1,
      "byteOffset": 17216,
      "componentType": 5126,
      "count": 64,
      "max": [
        0.04910515248775482,
        0.6489530801773071
      ],
      "min": [
        0.015429257415235043,
        0.1361740529537201
      ],
      "type": "VEC2"
    },
    {
      "bufferView": 0,
      "byteOffset": 34944,
      "componentType": 5125,
      "count": 192,
      "type": "SCALAR"
    },
    {
      "bufferView": 2,
      "byteOffset": 53184,
      "componentType": 5126,
      "count": 96,
      "max": [
        -13.799073219299316,
        20.11765480041504,
        6.18289852142334
      ],
      "min": [
        -16.396682739257813,
        17.21257781982422,
        -6.18289852142334
      ],
      "type": "VEC3"
    },
    {
      "bufferView": 2,
      "byteOffset": 54336,
      "componentType": 5126,
      "count": 96,
      "max": [
        0.3702218234539032,
        0.7932069897651672,
        0.9954630136489868
      ],
      "min": [
        -0.9692864418029785,
        -0.7048508524894714,
        -0.9954627752304077
      ],
      "type": "VEC3"
    },
    {
      "bufferView": 1,
      "byteOffset": 17728,
      "componentType": 5126,
      "count": 96,
      "max": [
        0.05673281103372574,
        0.6565879583358765
      ],
      "min": [
        0.0078015318140387535,
        0.1285552680492401
      ],
      "type": "VEC2"
    },
    {
      "bufferView": 0,
      "byteOffset": 35712,
      "componentType": 5125,
      "count": 384,
      "type": "SCALAR"
    }
  ],
  "asset": {
    "extras": {
      "author": "Akshat (https://sketchfab.com/shooter24994)",
      "license": "CC-BY-4.0 (http://creativecommons.org/licenses/by/4.0/)",
      "source": "https://sketchfab.com/3d-models/unicorn-low-poly-cartoon-0e189bc803054a1e83310a8e98cd92e3",
      "title": "Unicorn Low Poly Cartoon"
    },
    "generator": "Sketchfab-12.65.0",
    "version": "2.0"
  },
  "bufferViews": [
    {
      "buffer": 0,
      "byteLength": 37248,
      "name": "floatBufferViews",
      "target": 34963
    },
    {
      "buffer": 0,
      "byteLength": 18496,
      "byteOffset": 37248,
      "byteStride": 8,
      "name": "floatBufferViews",
      "target": 34962
    },
    {
      "buffer": 0,
      "byteLength": 55488,
      "byteOffset": 55744,
      "byteStride": 12,
      "name": "floatBufferViews",
      "target": 34962
    }
  ],
  "buffers": [
    {
      "byteLength": 111232,
      "uri": "scene.bin"
    }
  ],
  "materials": [
    {
      "doubleSided": true,
      "name": "blackeye",
      "pbrMetallicRoughness": {
        "baseColorFactor": [
          0.0,
          0.0,
          0.0,
          1.0
        ]
      }
    },
    {
      "doubleSided": true,
      "name": "BodyUnicorn",
      "pbrMetallicRoughness": {
        "metallicFactor": 0.5,
        "roughnessFactor": 0.5
      }
    },
    {
      "doubleSided": true,
      "name": "pinkFUR",
      "pbrMetallicRoughness": {
        "baseColorFactor": [
          1.0,
          0.14126299999999997,
          0.4564110000000001,
          1.0
        ],
        "metallicFactor": 0.5,
        "roughnessFactor": 0.5
      }
    },
    {
      "doubleSided": true,
      "name": "orangeHORN",
      "pbrMetallicRoughness": {
        "baseColorFactor": [
          1.0,
          0.376262,
          0.0,
          1.0
        ],
        "metallicFactor": 0.0,
        "roughnessFactor": 0.8922880280816406
      }
    },
    {
      "doubleSided": true,
      "name": "Horn2",
      "pbrMetallicRoughness": {
        "baseColorFactor": [
          1.0,
          0.351533,
          0.194618,
          1.0
        ],
        "metallicFactor": 0.0,
        "roughnessFactor": 0.8931007853941585
      }
    },
    {
      "doubleSided": true,
      "name": "horn3",
      "pbrMetallicRoughness": {
        "baseColorFactor": [
          0.291771,
          0.162029,
          0.708376,
          1.0
        ],
        "metallicFactor": 0.0,
        "roughnessFactor": 0.9487809840968885
      }
    },
    {
      "doubleSided": true,
      "name": "hornred",
      "pbrMetallicRoughness": {
        "baseColorFactor": [
          1.0,
          0.0,
          0.0,
          1.0
        ],
        "metallicFactor": 0.0,
        "roughnessFactor": 0.9524611947983544
      }
    },
    {
      "doubleSided": true,
      "name": "blueeye",
      "pbrMetallicRoughness": {
        "baseColorFactor": [
          0.289587,
          0.05740799999999996,
          0.7999999999999999,
          1.0
        ],
        "roughnessFactor": 0.5
      }
    },
    {
      "doubleSided": true,
      "name": "whiteeye",
      "pbrMetallicRoughness": {
        "metallicFactor": 0.0,
        "roughnessFactor": 0.7763932022500211
      }
    }
  ],
  "meshes": [
    {
      "name": "Plush Unicorn_blackeye_0",
      "primitives": [
        {
          "attributes": {
            "NORMAL": 1,
            "POSITION": 0,
            "TEXCOORD_0": 2
          },
          "indices": 3,
          "material": 0,
          "mode": 4
        }
      ]
    },
    {
      "name": "Plush Unicorn_BodyUnicorn_0",
      "primitives": [
        {
          "attributes": {
            "NORMAL": 5,
            "POSITION": 4,
            "TEXCOORD_0": 6
          },
          "indices": 7,
          "material": 1,
          "mode": 4
        }
      ]
    },
    {
      "name": "Plush Unicorn_pinkFUR_0",
      "primitives": [
        {
          "attributes": {
            "NORMAL": 9,
            "POSITION": 8,
            "TEXCOORD_0": 10
          },
          "indices": 11,
          "material": 2,
          "mode": 4
        }
      ]
    },
    {
      "name": "Plush Unicorn_orangeHORN_0",
      "primitives": [
        {
          "attributes": {
            "NORMAL": 13,
            "POSITION": 12,
            "TEXCOORD_0": 14
          },
          "indices": 15,
          "material": 3,
          "mode": 4
        }
      ]
    },
    {
      "name": "Plush Unicorn_Horn2_0",
      "primitives": [
        {
          "attributes": {
            "NORMAL": 17,
            "POSITION": 16,
            "TEXCOORD_0": 18
          },
          "indices": 19,
          "material": 4,
          "mode": 4
        }
      ]
    },
    {
      "name": "Plush Unicorn_horn3_0",
      "primitives": [
        {
          "attributes": {
            "NORMAL": 21,
            "POSITION": 20,
            "TEXCOORD_0": 22
          },
          "indices": 23,
          "material": 5,
          "mode": 4
        }
      ]
    },
    {
      "name": "Plush Unicorn_hornred_0",
      "primitives": [
        {
          "attributes": {
            "NORMAL": 25,
            "POSITION": 24,
            "TEXCOORD_0": 26
          },
          "indices": 27,
          "material": 6,
          "mode": 4
        }
      ]
    },
    {
      "name": "Plush Unicorn_blueeye_0",
      "primitives": [
        {
          "attributes": {
            "NORMAL": 29,
            "POSITION": 28,
            "TEXCOORD_0": 30
          },
          "indices": 31,
          "material": 7,
          "mode": 4
        }
      ]
    },
    {
      "name": "Plush Unicorn_whiteeye_0",
      "primitives": [
        {
          "attributes": {
            "NORMAL": 33,
            "POSITION": 32,
            "TEXCOORD_0": 34
          },
          "indices": 35,
          "material": 8,
          "mode": 4
        }
      ]
    }
  ],
  "nodes": [
    {
      "children": [
        1
      ],
      "matrix": [
        1.0,
        0.0,
        0.0,
        0.0,
        0.0,
        2.220446049250313e-16,
        -1.0,
        0.0,
        0.0,
        1.0,
        2.220446049250313e-16,
        0.0,
        0.0,
        0.0,
        0.0,
        1.0
      ],
      "name": "Sketchfab_model"
    },
    {
      "children": [
        2
      ],
      "matrix": [
        1.0,
        0.0,
        0.0,
        0.0,
        0.0,
        0.0,
        1.0,
        0.0,
        0.0,
        -1.0,
        0.0,
        0.0,
        0.0,
        0.0,
        0.0,
        1.0
      ],
      "name": "8033c0e308714666aabcb2fdc95ff90c.fbx"
    },
    {
      "children": [
        3
      ],
      "name": "RootNode"
    },
    {
      "children": [
        4,
        5,
        6,
        7,
        8,
        9,
        10,
        11,
        12
      ],
      "matrix": [
        1.0,
        0.0,
        0.0,
        0.0,
        0.0,
        0.9999999999999867,
        1.6292067073209113e-07,
        0.0,
        0.0,
        -1.6292067073209113e-07,
        0.9999999999999867,
        0.0,
        0.0,
        0.0,
        0.0,
        1.0
      ],
      "name": "Plush Unicorn"
    },
    {
      "mesh": 0,
      "name": "Plush Unicorn_blackeye_0"
    },
    {
      "mesh": 1,
      "name": "Plush Unicorn_BodyUnicorn_0"
    },
    {
      "mesh": 2,
      "name": "Plush Unicorn_pinkFUR_0"
    },
    {
      "mesh": 3,
      "name": "Plush Unicorn_orangeHORN_0"
    },
    {
      "mesh": 4,
      "name": "Plush Unicorn_Horn2_0"
    },
    {
      "mesh": 5,
      "name": "Plush Unicorn_horn3_0"
    },
    {
      "mesh": 6,
      "name": "Plush Unicorn_hornred_0"
    },
    {
      "mesh": 7,
      "name": "Plush Unicorn_blueeye_0"
    },
    {
      "mesh": 8,
      "name": "Plush Unicorn_whiteeye_0"
    }
  ],
  "scene": 0,
  "scenes": [
    {
      "name": "Sketchfab_Scene",
      "nodes": [
        0
      ]
    }
  ]
}
